<?xml version="1.0" standalone="no"?>
<!DOCTYPE svg PUBLIC "-//W3C//DTD SVG 20010904//EN"
 "http://www.w3.org/TR/2001/REC-SVG-20010904/DTD/svg10.dtd">
<svg version="1.0" xmlns="http://www.w3.org/2000/svg"
 width="80.000000pt" height="80.000000pt" viewBox="0 0 80.000000 80.000000"
 preserveAspectRatio="xMidYMid meet">

<g transform="translate(0.000000,80.000000) scale(0.100000,-0.100000)"
fill="#000000" stroke="none">
<path d="M535 716 c60 -62 71 -136 34 -214 -29 -59 -80 -91 -165 -103 -120
-16 -185 -82 -186 -188 -1 -148 149 -223 317 -160 74 27 165 112 202 187 39
79 45 211 13 295 -27 73 -112 166 -182 201 -73 37 -81 32 -33 -18z m-93 -463
c24 -21 23 -58 -2 -83 -55 -55 -135 24 -83 82 20 22 61 23 85 1z"/>
<path d="M355 617 c-31 -48 23 -105 73 -78 46 24 28 94 -25 99 -25 2 -35 -2
-48 -21z"/>
</g>
</svg>
